<svg xmlns="http://www.w3.org/2000/svg" width="14.965" height="14.965" viewBox="0 0 14.965 14.965">
  <path id="ion-android-calendar_-_Ionicons_Copy" data-name="ion-android-calendar - Ionicons Copy" d="M13.406,14.965H1.559A1.5,1.5,0,0,1,.468,14.5,1.5,1.5,0,0,1,0,13.406V2.806A1.5,1.5,0,0,1,.468,1.714a1.5,1.5,0,0,1,1.091-.467h.935V0H4.365V1.247H10.6V0h1.87V1.247h.935a1.505,1.505,0,0,1,1.092.467,1.505,1.505,0,0,1,.467,1.092v10.6a1.6,1.6,0,0,1-1.559,1.559ZM1.559,5.144v8.262H13.406V5.144Zm4.817,4.88H2.634V6.282H6.376v3.741Z" transform="translate(0 0)" fill="#cbcbcb"/>
</svg>
