<svg xmlns="http://www.w3.org/2000/svg" width="16.941" height="10.588" viewBox="0 0 16.941 10.588">
  <g id="retweet-arrows-symbol" transform="translate(-0.424)">
    <path id="Path" d="M10.128,8.334a.276.276,0,0,0-.227-.1H4.659V4.7H6.406a.557.557,0,0,0,.409-.175.569.569,0,0,0,.173-.414.554.554,0,0,0-.137-.377L3.94.2a.592.592,0,0,0-.892,0L.137,3.735A.553.553,0,0,0,0,4.112a.569.569,0,0,0,.173.414.557.557,0,0,0,.41.175H2.33V10.22q0,.028.009.106a.268.268,0,0,0,.027.106l.05.074a.168.168,0,0,0,.082.064.362.362,0,0,0,.123.018h8.735a.278.278,0,0,0,.2-.087.284.284,0,0,0,.086-.207.365.365,0,0,0-.064-.193Z" transform="translate(0.424)" fill="#cbcbcb"/>
    <path id="Path-2" data-name="Path" d="M11.474,6.057a.558.558,0,0,0-.409-.175H9.318V.368c0-.018,0-.054-.009-.106A.271.271,0,0,0,9.281.156L9.231.083A.17.17,0,0,0,9.149.018.36.36,0,0,0,9.027,0H.291a.279.279,0,0,0-.2.087A.284.284,0,0,0,0,.294.294.294,0,0,0,.064.478L1.519,2.243a.267.267,0,0,0,.227.11H6.988V5.882H5.241a.557.557,0,0,0-.409.174.569.569,0,0,0-.173.414.553.553,0,0,0,.137.377l2.912,3.529a.576.576,0,0,0,.892,0l2.912-3.529a.554.554,0,0,0,.137-.377A.568.568,0,0,0,11.474,6.057Z" transform="translate(5.718)" fill="#cbcbcb"/>
  </g>
</svg>
