<svg xmlns="http://www.w3.org/2000/svg" width="9.985" height="11.665" viewBox="0 0 9.985 11.665">
  <g id="user-white" transform="translate(-0.205)">
    <path id="Path" d="M2.776,5.552A2.776,2.776,0,1,0,.813,4.739a2.776,2.776,0,0,0,1.963.813Z" transform="translate(2.422 0)" fill="#fff"/>
    <path id="Path-2" data-name="Path" d="M4.994,0A5,5,0,0,0,0,4.809.183.183,0,0,0,.182,5h9.56a.246.246,0,0,0,.176-.076.243.243,0,0,0,.066-.18A5,5,0,0,0,4.994,0Z" transform="translate(0.205 6.662)" fill="#fff"/>
  </g>
</svg>
