<svg xmlns="http://www.w3.org/2000/svg" width="14.769" height="14.769" viewBox="0 0 14.769 14.769">
  <g id="moving" transform="translate(-0.434)">
    <path id="Path" d="M2.462,4.923A2.462,2.462,0,1,0,0,2.462,2.464,2.464,0,0,0,2.462,4.923Z" transform="translate(1)" fill="#cbcbcb"/>
    <path id="Path-2" data-name="Path" d="M2.462,4.923A2.462,2.462,0,1,0,0,2.462,2.464,2.464,0,0,0,2.462,4.923Z" transform="translate(9.5)" fill="#cbcbcb"/>
    <path id="Path-3" data-name="Path" d="M.615,6.534H.821V9.846H5.333V6.534h.205a.611.611,0,0,0,.615-.606V1.888A2.986,2.986,0,0,0,5.481,0a3.709,3.709,0,0,1-2.4.878A3.709,3.709,0,0,1,.673,0,2.986,2.986,0,0,0,0,1.888v4.04A.611.611,0,0,0,.615,6.534Z" transform="translate(0.434 4.923)" fill="#cbcbcb"/>
    <path id="Path-4" data-name="Path" d="M.615,6.534H.821V9.846H5.333V6.534h.205a.611.611,0,0,0,.615-.606V1.888A2.986,2.986,0,0,0,5.481,0a3.709,3.709,0,0,1-2.4.878A3.709,3.709,0,0,1,.673,0,2.986,2.986,0,0,0,0,1.888v4.04A.611.611,0,0,0,.615,6.534Z" transform="translate(9.05 4.923)" fill="#cbcbcb"/>
  </g>
</svg>
