<svg xmlns="http://www.w3.org/2000/svg" width="11.083" height="19" viewBox="0 0 11.083 19">
  <g id="phne" transform="translate(-20 -10)">
    <g id="Flight-Booking-Popup-_2---Clicked" data-name="Flight-Booking-Popup-#2---Clicked" transform="translate(-1106 -1241)">
      <g id="Popup" transform="translate(471 315)">
        <g id="Item-3" transform="translate(50 654)">
          <g id="Results">
            <g id="Group-17" transform="translate(30 240)">
              <g id="Group-15-Copy-2" transform="translate(560 28)">
                <g id="mobile-phone-blackberry" transform="translate(15 14)">
                  <path id="Shape" d="M9.1,2.375H3.167V1.188a1.188,1.188,0,0,0-2.375,0V2.781A1.97,1.97,0,0,0,0,4.354V17.021A1.979,1.979,0,0,0,1.979,19H9.1a1.979,1.979,0,0,0,1.979-1.979V4.354A1.979,1.979,0,0,0,9.1,2.375ZM8.313,15.042a.792.792,0,1,1-.792.792A.792.792,0,0,1,8.313,15.042ZM7.521,13.26a.792.792,0,1,1,.792.792A.792.792,0,0,1,7.521,13.26ZM9.5,9.5a.792.792,0,0,1-.792.792H2.375A.792.792,0,0,1,1.583,9.5V4.75a.792.792,0,0,1,.792-.792H8.708A.792.792,0,0,1,9.5,4.75ZM5.542,14.052a.792.792,0,1,1,.792-.792A.792.792,0,0,1,5.542,14.052Zm.792,1.781a.792.792,0,1,1-.792-.792A.792.792,0,0,1,6.333,15.833ZM2.771,14.052a.792.792,0,1,1,.792-.792A.792.792,0,0,1,2.771,14.052Zm.792,1.781a.792.792,0,1,1-.792-.792A.792.792,0,0,1,3.563,15.833Z" fill="#a6a6a6"/>
                </g>
              </g>
            </g>
          </g>
        </g>
      </g>
    </g>
  </g>
</svg>
