<svg xmlns="http://www.w3.org/2000/svg" width="21.795" height="10.462" viewBox="0 0 21.795 10.462">
  <g id="plane-landing" transform="translate(-0.787)">
    <path id="Path" d="M.617,4.906h0A.527.527,0,0,0,.362,5.926l7.4,2.453L5.3,9.356a.427.427,0,0,0,.089.818L7,10.439a.43.43,0,0,0,.14,0l6.129-1.016,5.9.959c2.257.335,2.569-.468,2.611-.722a1.126,1.126,0,0,0-.282-.885,4.506,4.506,0,0,0-1.557-1.123,2.484,2.484,0,0,1-.5-.32c-.445-.351-.776-.551-2.9-.9L4.918,4.524,2.933.423A.529.529,0,0,0,2.542.132L1.782.007a.529.529,0,0,0-.615.538l.153,4.479Z" transform="translate(0.787)" fill="#cbcbcb"/>
  </g>
</svg>
