<svg xmlns="http://www.w3.org/2000/svg" width="21.955" height="10.455" viewBox="0 0 21.955 10.455">
  <g id="takeoff-the-plane" transform="translate(-0.787)">
    <path id="Path" d="M2.274,9.092h0a.5.5,0,0,0-.241.646.529.529,0,0,0,.648.284L10,7.667,8.632,9.83a.4.4,0,0,0,.051.494.434.434,0,0,0,.506.084l1.436-.722a.421.421,0,0,0,.111-.08l4.254-4.3,5.25-2.65C22.228,1.621,22,.824,21.88.6a1.117,1.117,0,0,0-.75-.519,4.608,4.608,0,0,0-1.9.03,2.546,2.546,0,0,1-.584.039c-.562-.015-.943.022-2.836.973L5.456,6.331,1.442,4.316a.539.539,0,0,0-.483,0l-.676.34A.509.509,0,0,0,.011,5a.494.494,0,0,0,.1.422L2.9,8.78Z" transform="translate(0.787)" fill="#cbcbcb"/>
  </g>
</svg>
