<svg xmlns="http://www.w3.org/2000/svg" width="14.879" height="17.383" viewBox="0 0 14.879 17.383">
  <g id="user-grey" transform="translate(-0.305)">
    <path id="Path" d="M4.137,8.274A4.137,4.137,0,1,0,1.211,7.062,4.137,4.137,0,0,0,4.137,8.274Z" transform="translate(3.61 0)" fill="#a6a6a6"/>
    <path id="Path-2" data-name="Path" d="M7.442,0A7.447,7.447,0,0,0,0,7.166a.272.272,0,0,0,.271.29H14.518a.366.366,0,0,0,.262-.113.362.362,0,0,0,.1-.268A7.448,7.448,0,0,0,7.442,0Z" transform="translate(0.305 9.927)" fill="#a6a6a6"/>
  </g>
</svg>
